<?xml version="1.0" encoding="utf-8"?>
<!-- Generator: Adobe Illustrator 22.1.0, SVG Export Plug-In . SVG Version: 6.00 Build 0)  -->
<svg version="1.1" id="Capa_1" xmlns="http://www.w3.org/2000/svg" xmlns:xlink="http://www.w3.org/1999/xlink" x="0px" y="0px"
	 viewBox="0 0 363 363" style="enable-background:new 0 0 363 363;" xml:space="preserve">
<style type="text/css">
	.st0{fill:#30235F;}
</style>
<g>
	<path class="st0" d="M363,181.5C363,81.4,281.6,0,181.5,0C81.4,0,0,81.4,0,181.5C0,281.6,81.4,363,181.5,363
		C281.6,363,363,281.6,363,181.5z M11.7,181.5c0-93.6,76.2-169.8,169.8-169.8c93.6,0,169.8,76.2,169.8,169.8
		c0,91.7-73,166.5-163.9,169.7l0.4-189.9l33,33l8.3-8.3l-47.1-47.1L134,186.7l8.3,8.3l33.7-33.7l-0.4,189.9
		C84.7,348.1,11.7,273.2,11.7,181.5z"/>
</g>
</svg>
